<svg xmlns="http://www.w3.org/2000/svg" viewBox="0 0 77.646 60" class="icon"><path d="M77.505 2.457c-.258-.517-.646-.776-1.163-.776h-26.38c-.388 0-.646.13-.905.388l-10.603 9.828L30.695.517C30.436.13 30.048 0 29.661 0H16.859c-.259 0-.647.13-.905.388L.436 14.612c-.388.388-.517.905-.388 1.422.13.518.647.776 1.164.776h16.681l2.07 13.06c0 .389.258.777.646.906l20.56 12.026c.259.129.388.129.647.129h13.577l18.233 16.681c.259.259.517.388.905.388.259 0 .517 0 .647-.13.517-.258.776-.904.646-1.422l-4.396-16.94c0-.258-.259-.517-.388-.646L56.17 27.543 77.375 3.88c.259-.388.388-.905.13-1.422zm-48.62 0l7.629 11.12-14.353 13.449-3.75-24.44h10.474zM4.704 14.095L16.083 3.75l1.552 10.345H4.704zm54.569 28.707h9.957l2.974 11.767-12.931-11.767zm7.5-2.586H44.79l9.698-10.863 12.285 10.863zm-25.216-.26L23.454 29.354 50.48 4.267h23.017l-31.94 35.69z"/></svg>